<?xml version="1.0" encoding="UTF-8"?>
<svg id="_レイヤー_2" data-name="レイヤー 2" xmlns="http://www.w3.org/2000/svg" viewBox="0 0 325 110">
  <defs>
    <style>
      .cls-1 {
        fill: #008bbc;
      }

      .cls-1, .cls-2, .cls-3 {
        stroke-width: 0px;
      }

      .cls-2 {
        fill: none;
      }

      .cls-3 {
        fill: #ff4200;
      }
    </style>
  </defs>
  <g id="_ヘッダー" data-name="ヘッダー">
    <g>
      <g>
        <g>
          <path class="cls-1" d="m40.5277124,38.7745853V3.2229242h5.2226542v30.3290069h15.2844913v5.2226542h-20.5071455Z"/>
          <path class="cls-1" d="m95.8675715,14.6741714v24.1004139h-5.2226542v-3.4497727c-1.1180907,1.4374053-2.4756674,2.5873295-4.0722402,3.4497727-1.5980421.8624432-3.3229284,1.2939096-5.1746591,1.2939096-1.6617091,0-3.2269382-.3521276-4.6956872-1.0544237-1.4697286-.7022961-2.7553125-1.6602398-3.8572416-2.8748106-1.1019291-1.2135913-1.972698-2.626999-2.6113271-4.2402232-.6391189-1.6127345-.9579437-3.3459465-.9579437-5.1986566,0-1.8522204.3188248-3.5854324.9579437-5.1986566.6386291-1.6127345,1.509398-3.0261422,2.6113271-4.2402232,1.1019291-1.2135913,2.3875131-2.1720247,3.8572416-2.8748106,1.4687491-.7022961,3.0339781-1.0544237,4.6956872-1.0544237,1.8517306,0,3.576617.4241203,5.1746591,1.2699121,1.5965728.8467713,2.9541495,2.0050212,4.0722402,3.4737703v-3.4017776h5.2226542Zm-13.0801433,20.0276839c1.0852777,0,2.1078679-.2071627,3.0663014-.6229573.9584334-.4148151,1.7885534-.9819413,2.4913393-1.7008888.7022961-.7184578,1.2615864-1.5569034,1.677381-2.5153368.4143253-.9584334.6224675-1.995716.6224675-3.1142965,0-1.0857675-.2081422-2.1157039-.6224675-3.090299-.4157946-.9741053-.9750848-1.8208766-1.677381-2.5398241-.7027859-.7184578-1.5329058-1.2850942-2.4913393-1.7008888-.9584334-.4148151-1.9810237-.6229573-3.0663014-.6229573-1.0862572,0-2.1083577.2081422-3.0667911.6229573-.9579437.4157946-1.7963893.982431-2.5153368,1.7008888-.7184578.7189475-1.2860737,1.5657188-1.7008888,2.5398241-.4153048.9745951-.6229573,2.0045315-.6229573,3.090299,0,1.1185805.2076524,2.1558631.6229573,3.1142965.4148151.9584334.982431,1.7968791,1.7008888,2.5153368.7189475.7189475,1.5573931,1.2860737,2.5153368,1.7008888.9584334.4157946,1.9805339.6229573,3.0667911.6229573Z"/>
          <path class="cls-1" d="m107.0068504,38.7745853V3.2229242h5.2226542v35.5516611h-5.2226542Z"/>
          <path class="cls-1" d="m149.3282741,14.6741714v24.1004139h-5.2226542v-3.4497727c-1.1180907,1.4374053-2.4756674,2.5873295-4.0722402,3.4497727-1.5980421.8624432-3.3229284,1.2939096-5.1746591,1.2939096-1.6617091,0-3.2269382-.3521276-4.6956872-1.0544237-1.4697286-.7022961-2.7553125-1.6602398-3.8572416-2.8748106-1.1019291-1.2135913-1.972698-2.626999-2.6113271-4.2402232-.6391189-1.6127345-.9579437-3.3459465-.9579437-5.1986566,0-1.8522204.3188248-3.5854324.9579437-5.1986566.6386291-1.6127345,1.509398-3.0261422,2.6113271-4.2402232,1.1019291-1.2135913,2.3875131-2.1720247,3.8572416-2.8748106,1.4687491-.7022961,3.0339781-1.0544237,4.6956872-1.0544237,1.8517306,0,3.576617.4241203,5.1746591,1.2699121,1.5965728.8467713,2.9541495,2.0050212,4.0722402,3.4737703v-3.4017776h5.2226542Zm-13.0801433,20.0276839c1.0852777,0,2.1078679-.2071627,3.0663014-.6229573.9584334-.4148151,1.7885534-.9819413,2.4913393-1.7008888.7022961-.7184578,1.2615864-1.5569034,1.677381-2.5153368.4143253-.9584334.6224675-1.995716.6224675-3.1142965,0-1.0857675-.2081422-2.1157039-.6224675-3.090299-.4157946-.9741053-.9750848-1.8208766-1.677381-2.5398241-.7027859-.7184578-1.5329058-1.2850942-2.4913393-1.7008888-.9584334-.4148151-1.9810237-.6229573-3.0663014-.6229573-1.0862572,0-2.1083577.2081422-3.0667911.6229573-.9579437.4157946-1.7963893.982431-2.5153368,1.7008888-.7184578.7189475-1.2860737,1.5657188-1.7008888,2.5398241-.4153048.9745951-.6229573,2.0045315-.6229573,3.090299,0,1.1185805.2076524,2.1558631.6229573,3.1142965.4148151.9584334.982431,1.7968791,1.7008888,2.5153368.7189475.7189475,1.5573931,1.2860737,2.5153368,1.7008888.9584334.4157946,1.9805339.6229573,3.0667911.6229573Z"/>
          <path class="cls-1" d="m171.3198405,8.4450887c-.750781.0959903-1.3174175.2634835-1.7008888.5034592-.3834713.2394859-.6312829.5671262-.7424553.9819413-.1126416.4157946-.167983.9427616-.167983,1.5813907v2.5393344h5.7016261v5.2226542h-5.7016261v19.5007169h-5.2226542v-19.5007169h-4.1202354v-5.2226542h4.07273v-2.6353247c0-2.0123674.3829816-3.5614349,1.1499242-4.6476921.7664529-1.0852777,1.708235-1.876218,2.8268155-2.3718412,1.117601-.4946437,2.3071947-.7904505,3.5692708-.885951,1.2615864-.0959903,2.4031849-.1439854,3.4257751-.1439854v4.9351731c-1.3100713,0-2.3400077.0479951-3.090299.1434957Z"/>
          <path class="cls-1" d="m195.60244,13.188771c1.7885534,0,3.3057873.2634835,4.5517018.7904505s2.2831971,1.1905732,3.1142965,1.9883698c.8301199.7987762,1.4927466,1.6852169,1.9883698,2.6593222.4951335.9745951.8624432,1.909031,1.1019291,2.8028179.2399757.8947664.3834713,1.6852169.4314665,2.3718412.0479951.687114.0719927,1.1582499.0719927,1.4134077v2.4913393h-18.3987878c0,.3491891.1268443.8477508.3829816,1.4976441.2551578.6498933.6626267,1.2988071,1.2219169,1.9487004.5583107.6498933,1.2934199,1.212122,2.2038582,1.6866861.9104383.4755436,2.0202034.7125808,3.3302746.7125808,1.341415,0,2.5466806-.127334,3.6172659-.3834713,1.0700956-.2551578,2.0040417-.5426389,2.8028179-.8624432.9261102-.3506583,1.7567199-.7664529,2.491829-1.2454248v5.344601c-.2561373.2904195-.7272732.5803493-1.4134077.8707689-.6876038.2904195-1.4780542.5397004-2.3718412.7493118-.8947664.2096114-1.8052047.3868996-2.7313149.5323542-.9265999.1449649-1.7248864.2169576-2.395349.2169576-.3521276,0-.9030921-.0479951-1.6533834-.1439854-.750781-.0955005-1.5892266-.3109889-2.5153368-.6464651-.9265999-.3354762-1.868382-.8066121-2.8268155-1.4134077s-1.8370383-1.4055718-2.6353247-2.3958387c-.7987762-.9897772-1.4535669-2.2116941-1.9643723-3.6652611-.5112951-1.4530772-.7664529-3.2019611-.7664529-5.2466518,0-1.405082.2791554-2.8268155.8384456-4.2642208.5583107-1.4374053,1.3654126-2.7313149,2.4193466-3.8812392,1.0544237-1.1499242,2.3478436-2.0917063,3.8812392-2.8268155,1.5333956-.7346194,3.2739538-1.1019291,5.2226542-1.1019291Zm6.0371022,10.2533279c-.1283135-1.0852777-.4314665-2.0437112-.9104383-2.8748106-.4157946-.7341297-1.0142645-1.405082-1.7968791-2.0123674-.7831043-.6063059-1.8767077-.9104383-3.2817897-.9104383-1.4060615,0-2.5716577.2321397-3.4977678.69495-.9270897.4633-1.6612193,1.0064286-2.204348,1.6288961-.5431286.6229573-.9265999,1.2625659-1.1499242,1.9168669-.223814.6547908-.3349864,1.1739218-.3349864,1.5569034h13.1761336Z"/>
          <path class="cls-1" d="m228.84005,13.188771c1.7885534,0,3.3057873.2634835,4.5517018.7904505s2.2831971,1.1905732,3.1142965,1.9883698c.8301199.7987762,1.4927466,1.6852169,1.9883698,2.6593222.4951335.9745951.8624432,1.909031,1.1019291,2.8028179.2399757.8947664.3834713,1.6852169.4314665,2.3718412.0479951.687114.0719927,1.1582499.0719927,1.4134077v2.4913393h-18.3987878c0,.3491891.1268443.8477508.3829816,1.4976441.2551578.6498933.6626267,1.2988071,1.2219169,1.9487004.5583107.6498933,1.2934199,1.212122,2.2038582,1.6866861.9104383.4755436,2.0202034.7125808,3.3302746.7125808,1.341415,0,2.5466806-.127334,3.6172659-.3834713,1.0700956-.2551578,2.0040417-.5426389,2.8028179-.8624432.9261102-.3506583,1.7567199-.7664529,2.491829-1.2454248v5.344601c-.2561373.2904195-.7272732.5803493-1.4134077.8707689-.6876038.2904195-1.4780542.5397004-2.3718412.7493118-.8947664.2096114-1.8052047.3868996-2.7313149.5323542-.9265999.1449649-1.7248864.2169576-2.395349.2169576-.3521276,0-.9030921-.0479951-1.6533834-.1439854-.750781-.0955005-1.5892266-.3109889-2.5153368-.6464651-.9265999-.3354762-1.868382-.8066121-2.8268155-1.4134077s-1.8370383-1.4055718-2.6353247-2.3958387c-.7987762-.9897772-1.4535669-2.2116941-1.9643723-3.6652611-.5112951-1.4530772-.7664529-3.2019611-.7664529-5.2466518,0-1.405082.2791554-2.8268155.8384456-4.2642208.5583107-1.4374053,1.3654126-2.7313149,2.4193466-3.8812392,1.0544237-1.1499242,2.3478436-2.0917063,3.8812392-2.8268155,1.5333956-.7346194,3.2739538-1.1019291,5.2226542-1.1019291Zm6.0371022,10.2533279c-.1283135-1.0852777-.4314665-2.0437112-.9104383-2.8748106-.4157946-.7341297-1.0142645-1.405082-1.7968791-2.0123674-.7831043-.6063059-1.8767077-.9104383-3.2817897-.9104383-1.4060615,0-2.5716577.2321397-3.4977678.69495-.9270897.4633-1.6612193,1.0064286-2.204348,1.6288961-.5431286.6229573-.9265999,1.2625659-1.1499242,1.9168669-.223814.6547908-.3349864,1.1739218-.3349864,1.5569034h13.1761336Z"/>
          <path class="cls-1" d="m250.6313102,38.7745853V3.2229242h5.2226542v35.5516611h-5.2226542Z"/>
          <path class="cls-1" d="m274.9854126,13.2847613c.9261102,0,1.7405582.0881543,2.4433441.2634835.7022961.1758189,1.3095815.358984,1.8208766.5509646.5749621.2561373,1.0852777.526967,1.5333956.814448l-2.5461908,3.9287446c-.2247935-.2228346-.498072-.4148151-.8198353-.5749621-.2576065-.1591675-.5955315-.3031529-1.013285-.4309767-.4172638-.127334-.8996639-.1919805-1.4462207-.1919805-1.1572704,0-1.9844519.2561373-2.4830136.7669427-.4985617.5112951-.7473528,1.0705853-.7473528,1.6768912,0,.8624432.3119684,1.4937261.9373744,1.8923796.6249162.4001227,1.4104693.7189475,2.356659.9584334s1.9722082.4633,3.078545.6709524c1.1058471.2081422,2.1313758.5749621,3.0775655,1.1019291s1.7317428,1.2694223,2.356659,2.2278558c.625406.9584334.9383538,2.2998485.9383538,4.0247348,0,1.053934-.2159781,2.0603625-.6469548,3.018796-.4314665.9579437-1.053934,1.7890431-1.8688718,2.4913393-.814448.7027859-1.8130407,1.2620761-2.9943087,1.6768912-1.1822475.4157946-2.5079906.6229573-3.9767397.6229573-1.1822475,0-2.2205096-.1199878-3.1142965-.3594738-.8947664-.2394859-1.6852169-.526967-2.3718412-.8624432-.6876038-.3354762-1.2860737-.6944602-1.7968791-1.0779315-.5112951-.3834713-.9584334-.7022961-1.341415-.9584334l2.5873295-3.9287446c1.341415,1.0862572,2.5706782,1.8052047,3.6892586,2.1558631,1.117601.3521276,1.9002155.5274567,2.3478436.5274567,1.6602398,0,2.762169-.295317,3.3057873-.8864407.5426389-.590634.814448-1.3972461.814448-2.4198363,0-.9897772-.3114786-1.7165607-.9339461-2.1798606-.6229573-.4628102-1.3977358-.8384456-2.323846-1.1259267-.9270897-.2874811-1.9408645-.5431286-3.0427936-.7669427-1.1019291-.2228346-2.1161936-.5749621-3.0423038-1.053934-.9270897-.4789719-1.7008888-1.1572704-2.323846-2.036365-.6229573-.8781151-.9344359-2.1157039-.9344359-3.7132562,0-1.2135913.2473219-2.2518533.7429451-3.1142965.4946437-.8624432,1.1499242-1.5647393,1.9643723-2.1083577.814448-.5426389,1.7248864-.9417821,2.7308252-1.1979194,1.0064286-.2551578,2.0202034-.3829816,3.0427936-.3829816Z"/>
        </g>
        <g>
          <path class="cls-3" d="m99.5387095,64.7663992c.1155801,2.3904515.268381,4.817634.3496788,7.2095548.0205693.4241203.1434957.8046531.3682892,1.1411088,1.6906041,2.5848808,2.6676479,5.5130737,3.1676789,8.6572448.3016837,1.9173566.32813,3.8871161.2478116,5.8230831-.1028467,2.1690862-.3129479,4.3048697-.6631164,6.4088197-.2267525,1.053934-.4539948,2.1088474-.8928074,3.0956862-.1263545.2767066-.2517296.5529235-.4138356.7924095-.4907258.6425471-1.0838085.5940622-1.4344668-.162106-.3124581-.7184578-.4197126-1.4858902-.5264772-2.2538123-.3981637-3.1882482-.5166823-6.3515194-.6719319-9.5510317-.0391797-.8095506-.1459444-1.5774727-.1851241-2.3870233-.1013775-3.5114807-.3060914-7.018064-.3736764-10.5701937-.0396694-.8095506-.2737682-1.3389663-.787512-1.8943386-1.7175402-1.6935426-3.6892586-2.9120313-5.7888009-3.8920136-2.5971245-1.1881244-5.2775058-1.9467414-7.9608256-2.7827383-2.1543938-.6680139-4.3087877-1.3365176-6.4044119-2.2400994-.6768293-.3144171-1.3179072-.6312829-1.9266618-.9878182-.3947355-.2512398-.7581272-.5818186-1.0544237-.953536-.4828898-.6337317-.4089381-1.2557094.1934498-1.7483942.5015002-.4113869,1.1185805-.5955315,1.7376198-.7414758,1.2033066-.2904195,2.4467724-.4662384,3.6946458-.5656569,2.0760344-.2164679,4.1887998-.3966945,6.267283-.5744724,1.9761262-.1341905,3.9498037-.3075607,5.9225016-.5196208,1.5231109-.1508419,3.018796-.1464341,4.5389684-.3746559.3467404-.0166514.5161926-.1018672.5994494-.530885.1092134-.6239367.623447-.7649837,1.0279774-.3212736.036731.0372207.0729722.0744414.0749312.1126416.2037344.6082649.6567497.625406,1.1406191.5632082,6.0268176-.5245183,12.0702865-.7018064,18.1098375-.9559847,2.2900535-.1111724,4.5825558-.1836549,6.8765273-.2179371,1.5632701-.036731,3.1284992-.0357515,4.6956872.003918.6954397.0053872,1.4281001.0475054,2.1313758.2061832.2448731.0264463.4584025.1322315.6376496.2394859s.324212.2159781.3682892.4069791c.0073462.1537803.0132231.2698502-.0896236.3139274-.100398.0817876-.2047139.0866851-.2776861.0132231-.7297219-.6988679-1.6264474-.5397004-2.4972162-.5744724-3.2386921-.0749312-6.462202.1591675-9.6543682.3139274-2.8454258.1381084-5.6913414.2762169-8.4980772.4897463-1.8365485.127334-3.6779945.1787574-5.5116045.3829816-1.3859819.1057852-2.7744126.1733702-4.1599048.2791554-.7272732.0734619-1.4888287.1493726-2.2498944.2252833-.4858283.0235078-.519131.063667-.4907258.6420574.1488829,2.3502923.2629937,4.7015642.3771046,7.0533258.0073462.1542701.0127334.2698502.0205693.4241203l-.034772.0014692Zm-1.208204,5.9322965c.1297828-.1993267.0876646-.3516378.0817876-.4677077-.1924703-3.970373-.3849406-7.9412357-.5779006-11.9125882-.0186104-.3854303-.1067647-.7674324-.125375-1.1528627-.0151821-.3085401-.1576983-.3790636-.4353844-.3653507-1.2434658.1763087-2.4942777.1978575-3.7397025.3359659-2.4932983.2365474-5.022348.4368537-7.5190745.596511-2.3904515.1934498-4.7828621.3482096-7.1757623.5029694-.6567497.0705235-1.3139892.1405572-1.9702492.2497706-.4490973.0602388-.8962357.1596573-1.3056636.334007-.2718092.129293-.6151213.2228346-.6655652.6116931-.0161616.3868996.2708297.5671262.525008.7860428.5431286.4373434,1.1846962.7537195,1.8600563,1.0691161,2.2753612,1.0103466,4.6070431,1.7474147,6.9730074,2.4830136,2.3640052.6969089,4.7285002,1.3933281,7.0689976,2.3228665,1.6685655.6920115,3.2749333,1.5417213,4.7534773,2.628958.793389.5803493,1.5564136,1.2385683,2.2523431,1.9775954Zm1.6680758,3.5516399c.0298745.6170803.0249771,1.2356298.0205693,1.8541794.0759107,2.2763407.2223448,4.5874533.2287115,6.8677119.0445669,2.3547001.1219468,4.6692409.2012857,7.0229615.0078359.1537803.0151821.3080504.0225283.4628102-.0406489,1.3154585.0230181,2.6265092.158188,3.972332.0759107.8462816.0837466,1.735171.299235,2.5750859.0421182.1518213.0146924.3075607.2247935.3364557.198837-.2032447.324212-.4794616.4153048-.7542093.4064894-.947659.6371599-1.9247028.7987762-2.8983184.4446896-2.3018075.6102239-4.6281022.6689934-6.9886792.0778697-2.7087866-.1885523-5.3235419-.9403128-7.9147894-.4618307-1.6396705-1.1264164-3.1524967-2.098073-4.5355402Z"/>
          <path class="cls-3" d="m113.579735,81.8227925c.9378641-.0068564,1.8693615-.167983,2.7974307-.4064894,2.098073-.488277,4.074689-1.318397,6.0483664-2.2258968.4437101-.1758189.8854613-.3903278,1.3286816-.5666364.067585-.0416284.1714112-.0470156.2120601.0670952.0749312.1126416-.0274258.1562291-.0950108.1978575-.4069791.2125499-.781635.3859201-1.1553114.5583107-1.9056027.8658714-3.8116952,1.7307633-5.803983,2.2523431-1.0294467.2816041-2.0975833.488277-3.2083278.5421491-.3467404.0166514-.6205085.1077442-.8835023.4299972-.196878.2409552-.5015002.4104074-.7752683.5010104-.7174783.266422-1.3458227.2198961-1.8287126-.4138356-.3335172-.4089381-.6528318-.5480261-1.109765-.6415676-.8423636-.1528008-1.6568116-.4608512-2.4120004-.9652899-1.9775954-1.3335791-2.4771366-3.7441102-1.1151523-5.7809649,1.1651064-1.7958996,2.7988999-2.5319882,4.7608235-2.2400994,1.0505057.1425162,1.9129489.7184578,2.5476601,1.6151832,1.4525874,1.9775954,1.6984401,4.1682305.8364866,6.4896278-.061708.158188-.1234161.3153966-.1851241.4730949,0,0,.001959.03869.0406489.1141109Zm-4.2069204-1.3805947c-.0259566-.5397004.0151821-1.1210292.1283135-1.667586.0910928-.2747477.1812061-.5499851.4172638-.716009.4011022-.3286197.8653817-.0808081.924641.4187331.0073462.1547598-.0200796.3100094-.0470156.4662384-.0465259.4662384-.0940313.9319871-.1410469,1.3977358-.0195899.3104991-.0372207.6587087.0142026,1.0044696.0553413.4221613.0915826.4588923.4789719.5563518.3506583.0602388.6964192.0048975,1.0446288.0264463.4897463.0533823.7561682-.1914908.9437411-.625406.7870223-1.6999093.8438328-3.4027571.065626-5.1041356-.5015002-1.019162-1.1327831-1.8385075-2.094155-2.2939715-2.2420584-1.0509955-5.0140223.590634-5.6928106,3.0966657-.2639732,1.0176927-.0783594,1.974657.5548825,2.8326924.4118766.5984699.9868387.9956542,1.6284063,1.3120303.5010104.2850323,1.0656879.4510563,1.5916754.5416594.2811144.0631773.3119684-.0151821.297276-.3237223-.0151821-.3085401-.0646465-.6151213-.1146006-.9221922Z"/>
          <path class="cls-3" d="m124.7851296,79.1149854c.5984699-.5700647,1.2003681-1.0632391,1.766025-1.5926549,1.2664838-1.1435575,2.4981957-2.2851561,3.5795555-3.6520379.293358-.4001227.6018982-.492195.8560765-.2727887.2522193.1802266.3041324.5259875.1185186.9990824-.3100094.787512-.8350174,1.4315283-1.3992051,1.9991443-1.3551279,1.4569951-2.8992979,2.6147553-4.4449371,3.7328461-.133211.1219468-.2678912.2061832-.3663302.3271505-.1008877.0817876-.1297828.1993267-.0896236.3134376.0768902.1503521.1797369.1072544.2835631.1018672.3452711-.0553413.7267835-.0739517,1.1063368-.131252.8658714-.0803184,1.6440782.1914908,2.3987639.6954397.5739959.358984,1.1479786.7174783,1.7253894,1.1533525.9378641.6880935,1.8017765.5690852,2.6740146-.0915826.301194-.2463424.6018982-.4926847.8673406-.7767376,1.2943994-1.2606069,2.6632402-2.4472621,4.0335503-3.5957171.235568-.166024.4706462-.3325377.7434348-.461341.067585-.0421182.1723907-.0083257.2110806.0670952.0754209.1121519.0093052.19296-.0582798.2345885-.2350782.166024-.4353844.3305787-.6709524.4966027-1.4031231,1.1886142-2.7680459,2.4526493-4.0580376,3.8288363-.397674.4064894-.7973069.7733094-1.3041943,1.0681366-.8124891.4647692-1.6430987.5431286-2.5006444.0827671-.6778088-.3535968-1.3247637-.785553-1.9369465-1.219958-.7204168-.5059079-1.4623824-.7404964-2.2983792-.7772273-.1738599.0083257-.3824918.0186104-.5553723.026936-.5171721.102357-.5827981.1826754-.5568415.7223757.1488829,2.3502923.3325377,4.6986257.5504616,7.0454898.1351832,1.3458227.2355812,2.6936045.4378464,3.997309.1067647.7684119.1807164,1.5760035.6288342,2.2107147.0768902.1513316.1194981.3036427-.0142026.4260793-.098439.1209673-.2385064.0891338-.3815123.0181206-.2140191-.1052954-.3291095-.3315582-.4094279-.55978-.2331192-.490236-.32813-1.0269979-.4241203-1.5632701-.233609-1.2253452-.3971842-2.4541185-.5627185-3.7215819-.2017755-1.9991443-.4397921-4.035999-.6773191-6.072364-.0607285-.5382311-.0504439-1.0412006-.1459444-1.5774727-.0553413-.422651-.1288033-.496113-.5054181-.3619225-.4412614.2145089-.8482405.4275485-1.2880327.6807473-.200796.164065-.4015919.3286197-.6557703.1092134-.1464341-.1474136-.0881543-.3820021.2076524-.7444143.492195-.6038571,1.0216107-1.1700038,1.5867779-1.6999093.264463-.2830733.3903278-.55978.3677994-1.0225902-.1958985-1.8840539-.3913073-3.7681078-.5891648-5.6903619-.003918-.0773799-.0093052-.19296-.0132231-.2703399-.2404654-2.8091846-.4446896-5.5816382-.5117849-8.3991485-.0621978-2.0060007-.092562-4.0526504-.0852159-6.0630588.0073462-1.2752993.0499541-2.5530473.094521-3.7916156-.0097949-.1924703.0156719-.3873893.0759107-.5827981.1248853-.2767066.326171-.4412614.6400984-.4177536.2776861-.0132231.4588923.1322315.5759416.3971842.1170494.264463.1302725.5343132.1430059.8046531-.0421182,1.2767685-.0842364,2.5545165-.0920723,3.8298158-.0171411,1.082829.0004897,2.1641888.0161616,3.2068586.1890421,5.3235419.5161926,10.6402274.7742888,15.9603411.0078359.1542701-.0171411.3491891.1327212.5734929Z"/>
          <path class="cls-3" d="m142.5159035,80.4191797c.9378641-.0073462,1.8693615-.1684727,2.7974307-.4069791,2.098073-.4877873,4.074689-1.318397,6.0483664-2.225407.4437101-.1763087.8854613-.3903278,1.3286816-.5666364.067585-.0421182.1714112-.0470156.2120601.0666055.0749312.1126416-.0274258.1567188-.094521.1983472-.4069791.2125499-.781635.3859201-1.1558012.557821-1.9056027.8658714-3.8116952,1.7307633-5.8034933,2.2528328-1.0299364.2816041-2.098073.488277-3.2088175.5421491-.3467404.0166514-.6205085.1072544-.8830125.4295075-.1973677.2414449-.5019899.4104074-.7752683.5010104-.717968.266422-1.3463125.2198961-1.8292023-.4133459-.3330275-.4089381-.6528318-.5480261-1.1092753-.6420574-.8423636-.1523111-1.6573014-.4603615-2.4124901-.9652899-1.9775954-1.3335791-2.4771366-3.7441102-1.1151523-5.7804752,1.1651064-1.7958996,2.7988999-2.5319882,4.7613132-2.2405892,1.050016.1425162,1.9124592.7189475,2.5476601,1.6151832,1.4520977,1.9775954,1.6979503,4.1682305.8359969,6.4901175-.061708.158188-.1229263.3149069-.1851241.4726051,0,0,.001959.03869.0406489.1146006Zm-4.2064307-1.3805947c-.0259566-.5397004.0151821-1.121519.1278238-1.6680758.0910928-.2747477.1816959-.5494953.4172638-.7155193.4011022-.3291095.8653817-.0808081.924641.4182433.0073462.1547598-.0200796.3104991-.0470156.4662384-.0465259.4662384-.0940313.9324769-.1405572,1.3982256-.0195899.3100094-.0377105.6587087.0142026,1.0039798.0553413.422651.0915826.4588923.4789719.5563518.3501686.0602388.6959294.0053872,1.044139.0264463.4897463.0533823.7561682-.191001.9437411-.625406.787512-1.6999093.8438328-3.4027571.065626-5.1041356-.5015002-1.0186722-1.1327831-1.8385075-2.094155-2.2939715-2.2420584-1.0505057-5.0140223.5911237-5.6928106,3.0971554-.2634835,1.017203-.0783594,1.974657.5548825,2.8322027.4118766.5984699.9873285.9961439,1.6284063,1.31252.5010104.2850323,1.0661776.4505666,1.5916754.5411696.2816041.0631773.3124581-.0151821.2977657-.3237223-.0151821-.3085401-.0646465-.6151213-.1146006-.9217025Z"/>
          <path class="cls-3" d="m155.8943023,72.31192c-.6435266,1.0740136-.8707689,2.128927-1.0245492,3.2568127-.1483931,1.2434658-.0886441,2.4771366-.133211,3.7157049-.0195899.3104991-.0048975.6190393-.0612183.8923177-.1483931.5093361-.590634.7243347-1.0529545.5147233-.3193146-.1395777-.5411696-.3986535-.6969089-.7390271-.4760334-1.2135913-.6053264-2.4438339-.5627185-3.7210921.0097949-.5029694.3442916-.789471.692991-.7684119.3834713.0200796.6415676.3168658.6655652.8178763.0685645.692991.067585,1.3879409.2399757,2.0755447.0053872.1155801.0127334.2703399.1248853.4187331.1449649-.5862263.1170494-1.1651064.1606368-1.708235.1405572-1.3972461.2487911-2.7553125.6729114-4.0511811.1821856-.5499851.3653507-1.0607904.6209983-1.5368238.4153048-.754699,1.0421801-.7468631,1.4281001.0460361.1885523.3007042.2767066.6827063.362902,1.0260184.2091217.7243347.4892565,1.4834414.7336399,2.2058172.4794616,1.2904814,1.673463,2.237161,3.024673,2.132845,1.0735238-.0901133,2.1441092-.258586,3.1853097-.3090299.3815123-.0186104.7630247-.0372207,1.1122138-.0151821.2429141-.0117539.4525256.0166514.6356907.2012857.0729722.0734619.0768902.1503521.0460361.229691-.030854.0783594-.098439.1204776-.169942.0852159-1.1269062-.2928683-2.2572405.0705235-3.3640671.2017755-.8986844.1214571-1.7572096.3555558-2.6681377.2071627-1.437895-.2394859-2.4526493-1.0794008-3.113317-2.5158266-.3095196-.6415676-.5514543-1.3257431-.691032-2.0530164-.0440772-.191001-.0866851-.3438019-.1684727-.6097341Z"/>
          <path class="cls-3" d="m169.8907609,79.0909878c.9378641-.0073462,1.8693615-.1684727,2.7974307-.4069791,2.098073-.4877873,4.074689-1.318397,6.0483664-2.225407.4437101-.1763087.8854613-.3903278,1.3286816-.5666364.067585-.0421182.1714112-.0470156.2120601.0666055.0749312.1126416-.0274258.1567188-.094521.1983472-.4069791.2125499-.781635.3859201-1.1558012.5583107-1.9056027.8653817-3.8116952,1.7307633-5.8034933,2.2523431-1.0299364.2816041-2.098073.488277-3.2088175.5421491-.3467404.0166514-.6205085.1072544-.8830125.4295075-.1973677.2414449-.5019899.4108971-.7752683.5010104-.717968.266422-1.3463125.2198961-1.8292023-.4133459-.3330275-.4089381-.6528318-.5480261-1.109765-.6420574-.8418738-.1523111-1.6568116-.4603615-2.4120004-.9652899-1.9775954-1.3335791-2.4771366-3.7441102-1.1151523-5.7804752,1.1651064-1.7958996,2.7988999-2.5319882,4.7608235-2.2405892,1.0505057.1425162,1.9129489.7189475,2.5481498,1.6151832,1.4520977,1.9775954,1.6979503,4.1682305.8359969,6.4901175-.061708.158188-.1229263.3149069-.1851241.4726051,0,0,.001959.03869.0406489.1146006Zm-4.2064307-1.3805947c-.0259566-.5397004.0146924-1.121519.1278238-1.6680758.0910928-.2747477.1816959-.5494953.4172638-.7155193.4011022-.3291095.8653817-.0808081.924641.4182433.0073462.1547598-.0200796.3104991-.0470156.4662384-.0465259.4662384-.0940313.9324769-.1405572,1.3982256-.0195899.3100094-.0377105.6587087.0142026,1.0039798.0553413.422651.0910928.4588923.4789719.5568415.3501686.059749.6959294.0048975,1.044139.0259566.4897463.0533823.7561682-.191001.9437411-.625406.787512-1.6999093.8438328-3.4027571.065626-5.1041356-.5015002-1.0186722-1.1327831-1.8385075-2.094155-2.2939715-2.2420584-1.0505057-5.0140223.5911237-5.6928106,3.0971554-.2634835,1.0176927-.0783594,1.974657.5548825,2.8322027.4118766.5989597.9873285.9961439,1.6284063,1.31252.5010104.2850323,1.0656879.4510563,1.5916754.5411696.2816041.063667.3119684-.0151821.297276-.3237223-.0151821-.3085401-.0641568-.6146316-.1141109-.9217025Z"/>
          <path class="cls-3" d="m192.3686454,77.8837633c-.2811144-.0631773-.5970007-.125375-.8746868-.1121519-1.5309468-.0024487-3.051609.1870831-4.5326017.4912155-.3438019.0935415-.6905422.1106827-1.0377723.127334-.5921032-.0102847-.889869-.420692-.8154275-1.0431596.0161616-.3868996.1743497-.7032756.2962965-1.0573622.2536886-.5142336.5416594-1.0309159.8291404-1.5471085.5181516-.7977967,1.0357986-1.5960831,1.5167442-2.4311005.0661157-.0803184.1317417-.1611265.1954088-.2791554.09648-.160147.0543618-.3124581-.1537803-.3026632-.1038262.0053872-.2429141.0117539-.3447814.0558311-2.063301.486318-3.9659653,1.4290796-5.5987793,2.8992979-.2331192.2047139-.430487.4461589-.5911237.7243347-.3202941.5563518-.2595655,1.0945829.1464341,1.576983.3677994.4069791.8007351.7341297,1.2997866.980472.1772881.0690542.3560455.1763087.5010104.2850323.1807164.1459444.1552496.3398839-.0475054.4657487-.137129.0455464-.3104991.0538721-.4510563.0220386-.8746868-.1121519-1.6220396-.4623205-2.2827074-1.1646166-.6249162-.7037654-.8071018-1.5838394-.4701564-2.5275805.3075607-.826202.8350174-1.4310386,1.4697286-1.964862,1.7356608-1.5142955,3.7103177-2.3826156,5.8431627-2.8723619.3438019-.0940313.6572395-.0705235,1.0039798-.0876646,1.1166215.061708,1.6475064.9638207,1.2155502,2.1049295-.2458526.6689934-.6704626,1.2302426-1.0955624,1.7924713-.6856448.9217025-1.4060615,1.8458537-2.0897473,2.8062461-.09648.1596573-.1934498.3188248-.2899298.4775026-.0950108.1978575-.0195899.3104991.1537803.3016837.4858283-.0235078.9310077-.1606368,1.4134077-.2615245.9310077-.1611265,1.8625051-.322253,2.7974307-.4059997.9026024-.0435874,1.773861-.0088154,2.6852788.1400674.3526024.0989287.6611575.0068564.9985926-.202755.7409861-.5000309,1.5191929-.9628412,2.3326615-1.3889204.4412614-.2140191.8487303-.4275485,1.2997866-.4490973.1410469.0318335.2776861-.0137129.3545763.137129.0034282.0773799-.028895.1175391-.098439.1209673-.6249162.0303643-1.2028168.2899298-1.743007.625406-.7120911.3820021-1.3859819.8399148-2.1651683,1.2645249.1846343.2228346.3927765.2125499.5705544.2816041,1.0632391.4118766,2.0299983.9829208,2.8380796,1.8713205.8448123.9251307,1.3149687,2.0231418,1.5177237,3.3268464.2874811,1.6093062.0489746,3.1666994-.3633917,4.694218-.6782986,2.5060317-1.8203869,4.7637619-3.215674,6.8402861-3.4022673,5.1501718-7.616534,9.3355434-12.6829591,12.4410244-2.1935735,1.3815742-4.5433761,2.4227748-7.0582232,2.9311314-1.1700038.2497706-2.3444154.4231408-3.5060935.1317417-.1410469-.0318335-.3163761-.0621978-.4584025-.1327212-1.5534752-.465259-2.4805648-1.6573014-2.6730351-3.4634856-.0773799-.8854613.0186104-1.7792482.2198961-2.6392426.3183351-1.3291714.8139583-2.5897783,1.414877-3.8165927,1.1440473-2.2200198,2.5050522-4.2950748,4.0110219-6.2227161,2.9487623-3.7377435,6.3412347-6.954397,10.0270651-9.8385128,2.4124901-1.8943386,4.8974627-3.7152152,7.4563869-5.4626299.067585-.0416284.2047139-.0871748.23165-.2434039Zm-18.4453137,31.3080097c.8688099-.003918,1.7283146-.2003062,2.5520678-.4334254,2.6421811-.7463733,5.0502635-2.0226521,7.3383581-3.6020838,2.3213973-1.6195909,4.4542423-3.5393963,6.36964-5.641877,2.2802586-2.4678314,4.3063389-5.1550692,5.8260216-8.2434092,1.109765-2.2170814,1.9692697-4.5781481,2.0887678-7.1346236.1072544-2.0912166-.5323542-3.7989618-2.1210911-4.9973709-.683196-.4691769-1.3943076-.7826145-2.1725144-1.053934-.5646774-.1655342-.9775336-.0685645-1.482462.2649527-2.2195301,1.5760035-4.4037984,3.1510275-6.5826796,4.8406521-4.0526504,3.2107765-7.8496532,6.6796494-11.052104,10.9311367-1.4697286,1.964862-2.7974307,4.0002475-3.8685058,6.2932395-.7233552,1.580901-1.3041943,3.2328151-1.318397,5.0874842.0146924,1.7385993.7027859,3.0192857,2.2557713,3.4850344.7071936.2360577,1.439854.2776861,2.1671272.2042242Z"/>
          <path class="cls-3" d="m202.1518168,70.9558126c1.0759726-.0519131,1.7670045.5710441,1.8948283,1.7630866.0475054.2678912.0915826.459382.2727887.6053264.2561373.2576065.3075607.6028777.326171.9887977.0548516.422651.1469239.8815433.2718092,1.3002763.3682892,1.1415986,1.1905732,1.603919,2.2591995,1.3977358,1.0333646-.2042242,1.9824929-.7145398,2.9698214-1.148455,1.1925322-.5220695,2.3806566-1.1205395,3.611389-1.5666983.2037344-.0871748.4108971-.1361495.6518523-.1861036.1385982-.0068564.2771964-.0132231.3868996.0969698.0734619.0734619.1469239.1474136.1175391.2649527-.028895.1170494-.098439.1204776-.2047139.0871748-.3873893-.0969698-.7272732.0739517-1.0681366.2061832-1.3634536.5690852-2.686748,1.2513017-4.0453042,1.9354773-.4765231.2159781-.9530462.432446-1.4663003.6121828-.4775026.1772881-.9599027.2781759-1.480503.3036427-.9368846.0455464-1.5838394-.3868996-2.0765242-1.2135913-.3418429-.6014084-.4432204-1.2532607-.5445979-1.905113-.0401592-.1146006-.0475054-.2688707-.0881543-.3820021-.0073462-.1547598-.1131314-.1880626-.2130396-.1062749-.1356597.0842364-.2360577.166024-.334007.2869913-.7321707.6925012-1.4290796,1.3835332-2.1259885,2.0740754-.3643712.3658405-.7640042.7326604-1.1651064,1.0612802-.2032447.1258648-.3692687.2884606-.6082649.3771046-.9163153.4696667-1.739089.0073462-2.0011033-1.1004599-.2169576-.8786048-.1175391-1.6950118.3002145-2.4110209.8276712-1.5853087,1.9937571-2.6470786,3.5673118-3.1872687.2732784-.0906031.5147233-.1405572.7919197-.1542701Zm.1444751,1.5387828c-.1714112.0475054-.3447814.0558311-.5166823.1028467-1.4692388.5348029-2.4599955,1.6259576-3.0809938,3.1632711-.0582798.2350782-.1165596.4696667-.1057852.7008269-.0102847.5029694.2443834.7223757.6900525.584757.2042242-.0871748.4412614-.2145089.6420574-.3790636,1.244935-.8717484,2.268015-2.003552,3.3302746-3.0599347.1650445-.1625958.1576983-.3163761.0793389-.5059079-.2306705-.4530153-.5543928-.6689934-1.0382621-.6067956Z"/>
          <path class="cls-3" d="m217.6655094,76.0383993c-.092562.2365474-.1503521.4711359-.2434039.7076834-.0910928.2742579-.2149986.5896545-.4118766.8315892-.5274567.6053264-1.1866552.6371599-1.735171.0837466-.5480261-.5529235-.7924095-1.2752993-.9011331-2.0814216-.133211-1.3076225-.092562-2.6235708.1557393-3.9493139.0587696-.2350782.1170494-.4691769.2811144-.6709524.1954088-.2791554.4686872-.3702482.75274-.2674015.2478116.1033365.4368537.4030612.453505.7502913-.0254668.1944293-.0509336.3888585-.1092134.623447-.1611265.9741053-.2184268,1.9428234-.169942,2.9453341.0612183.5382311.191001,1.0725443.3888585,1.5652291.1229263.3805329.2962965.3722072.4931745.1307623.0989287-.1204776.1625958-.2394859.1914908-.357025.4040407-.9853695.7737991-1.9697595.7213963-3.04965-.003918-.0768902-.005877-.1155801-.0093052-.1924703.0450567-.5039489.3085401-.826202.6552805-.8428533.3815123-.0186104.6758498.3149069.7331502.7757581.1048057.7292322.1733702,1.4212437.2091217,2.1539041.0710132,1.4653208.4172638,2.8777491,1.0034901,4.202023.1993267.5313747.4686872,1.0593212.8384456,1.5049903.1483931.1861036.2938478.3335172.4730949.4407716.3599635.2531988.7071936.2365474,1.0446288.0264463.6082649-.3771046.9265999-.9721463,1.1709833-1.6798297.2438936-.7071936.3815123-1.44769.4853386-2.1872068.1283135-.9339461.2203858-1.9041335.2796451-2.8346514.0161616-.3873893-.0337925-.6934807-.391797-.9084793-.826202-.5397004-1.248853-1.3688408-1.5045005-2.3228665-.2159781-.8781151-.395715-1.7194991-.2659322-2.6152451.0254668-.1939395.0509336-.3888585.1126416-.5455773.3080504-.8266917.8609739-.8923177,1.3810845-.2223448.1513316.2629937.3051119.5656569.387879.8315892.3624122,1.0255287.588675,2.0970935.6410779,3.1764943.0186104.3854303.0391797.8095506.0577901,1.1949809.0538721.3834713.0920723.459382.4427306.519131.7728196.1562291,1.5343751.0808081,2.2939715-.0337925,1.1048676-.1694522,2.2058172-.4162843,3.350844-.4716257.4510563-.0220386.9319871-.1611265,1.3830435-.1831651.3134376.0239976.5930827.0489746.9094588.1106827.1385982-.0068564.2816041.063667.3580045.2145089.0382002.0754209.0421182.1523111.0112642.2311602-.032813.0401592-.100398.0822774-.169942.0857056-1.2679531-.3247018-2.4673417.0421182-3.7112972.2184268-1.0020209.1258648-1.9991443.3677994-3.0055728.4167741-.4853386.0235078-.9403128-.0318335-1.3952871-.0871748q-.3834713-.0200796-.4344049.3687789c-.0685645.7375579-.1028467,1.4736465-.1704317,2.2107147-.092562.9706771-.2194063,1.9428234-.488277,2.8449361-.1782676.6268752-.4280382,1.2189785-.787512,1.6999093-.8168968,1.082829-1.8115714,1.3634536-2.9286827.5671262-.8648919-.6146316-1.4976441-1.4731568-1.9315593-2.5344369-.397674-1.0235697-.691032-2.0525266-.7801658-3.1691481-.03869-.0754209-.0073462-.1542701-.1155801-.2262628Zm6.6625082-3.9169907c-.0563208-1.1567807-.2492809-2.2675252-.75274-3.3253772-.1170494-.2649527-.2399757-.6454856-.5142336-.5543928-.3105148.0533823-.2918888.4393024-.3129479.7101321-.0514234,1.0842982.0700337,2.1612503.5000309,3.1446608.1944293.4157946.455464.789471.818366,1.08087.0724824.0734619.1434957.1087237.2115704.0670952.1023412-.0435874.09648-.1591675.0930518-.2365474-.0151821-.3080504-.0298745-.6165906-.0430977-.8864407Z"/>
          <path class="cls-3" d="m237.7842861,69.2270082c1.0759726-.0519131,1.7670045.5710441,1.8948283,1.7630866.0475054.2678912.0920723.459382.2727887.6053264.2561373.2576065.3075607.6028777.326171.9887977.0548516.422651.1469239.8815433.2718092,1.3002763.3682892,1.1420883,1.1905732,1.603919,2.2591995,1.3977358,1.0333646-.2042242,1.9824929-.7140501,2.9698214-1.148455,1.1925322-.5215798,2.3806566-1.1205395,3.611389-1.5666983.2042242-.0871748.4108971-.1361495.6518523-.1861036.1385982-.0068564.2771964-.0132231.3868996.0969698.0734619.0734619.1469239.1479034.1175391.2649527s-.0989287.1204776-.2047139.0871748c-.3873893-.0969698-.7267835.0739517-1.0681366.2061832-1.3639434.5690852-2.686748,1.2513017-4.0453042,1.9354773-.4765231.2159781-.9530462.4329357-1.4658106.6121828-.4779924.1772881-.9603924.2781759-1.4809927.3036427-.9373744.0455464-1.5838394-.3868996-2.0765242-1.2135913-.3418429-.6014084-.4432204-1.2532607-.5445979-1.905113-.0401592-.1146006-.0475054-.2688707-.0881543-.3820021-.0073462-.1547598-.1131314-.1880626-.2130396-.1062749-.1356597.0842364-.2360577.166024-.3344967.2869913-.7316809.6925012-1.4285899,1.3835332-2.1254988,2.0740754-.3643712.3658405-.7640042.7326604-1.1651064,1.0612802-.2032447.1258648-.3692687.2884606-.6082649.3771046-.9163153.4696667-1.7385993.0073462-2.0011033-1.1004599-.2164679-.8786048-.1170494-1.6950118.3002145-2.4110209.8276712-1.5853087,1.9937571-2.6465888,3.5673118-3.1872687.2732784-.0906031.5147233-.1405572.7919197-.1542701Zm.1444751,1.5387828c-.1719009.0475054-.3447814.0558311-.5166823.1028467-1.4692388.5348029-2.4599955,1.6259576-3.0809938,3.1632711-.0582798.2350782-.1165596.4696667-.1057852.7008269-.0102847.5029694.2443834.7223757.6900525.584757.2042242-.0871748.4412614-.2145089.6420574-.3790636,1.2444453-.8717484,2.268015-2.003552,3.3302746-3.0599347.1650445-.1625958.1576983-.3163761.0793389-.5059079-.2306705-.4530153-.5543928-.6689934-1.0382621-.6067956Z"/>
        </g>
      </g>
      <rect class="cls-2" width="325" height="110"/>
    </g>
  </g>
</svg>